<svg xmlns="http://www.w3.org/2000/svg" viewBox="0 0 994.26 161.93"><defs><style>.cls-1{fill:#3d3d3d;}</style></defs><title>wordmark</title><g id="Layer_2" data-name="Layer 2"><g id="Mark"><path class="cls-1" d="M52.13,46.14A51.28,51.28,0,0,1,63,47.55a27.5,27.5,0,0,1,7.58,3.05A13.33,13.33,0,0,1,75,54.79a9.09,9.09,0,0,1,1.41,4.8,8.17,8.17,0,0,1-.23,1.87,6,6,0,0,1-.79,1.86,4,4,0,0,1-1.69,1.47,6.58,6.58,0,0,1-2.94.57,6.93,6.93,0,0,1-3.45-.79c-1-.53-2.06-1.11-3.34-1.76a26.5,26.5,0,0,0-5-1.75,37.25,37.25,0,0,0-8.65-.79,87.2,87.2,0,0,0-17.24,1.36A42,42,0,0,0,23,64.79a11.66,11.66,0,0,0-4.75,3.74,6.45,6.45,0,0,0-1.19,2.94v85.59a3.83,3.83,0,0,1-.73,2.49A5.4,5.4,0,0,1,14.42,161a8.55,8.55,0,0,1-2.72.74,28.74,28.74,0,0,1-3.11.17,17.23,17.23,0,0,1-6-1A3.78,3.78,0,0,1,0,157.06V66.49a10.74,10.74,0,0,1,2.26-6.62,21.24,21.24,0,0,1,6.16-5.31,46.24,46.24,0,0,1,9-4,76.82,76.82,0,0,1,11-2.72,109.63,109.63,0,0,1,11.87-1.41Q46.36,46,52.13,46.14Z"/><path class="cls-1" d="M166.87,108.78q-5.66,1.47-13.13,2.88t-15.46,2.72q-8,1.31-15.91,2.43c-5.28.75-10.08,1.4-14.38,1.92a64.68,64.68,0,0,0,1.7,12.55,20.13,20.13,0,0,0,4.8,9.11,21.4,21.4,0,0,0,9.39,5.54,52.36,52.36,0,0,0,15.32,1.86A72.47,72.47,0,0,0,155,146.32,63.62,63.62,0,0,0,165.72,143a51.74,51.74,0,0,0,6.72-3.33,12,12,0,0,1,4-1.76,5.64,5.64,0,0,1,4.41,1.59,6,6,0,0,1,1.7,4.41,10,10,0,0,1-2.94,6.84,25.51,25.51,0,0,1-8.43,5.71,58.4,58.4,0,0,1-13.28,4,95.78,95.78,0,0,1-17.64,1.47,97.42,97.42,0,0,1-19.57-1.7,42.86,42.86,0,0,1-13.6-5,27.44,27.44,0,0,1-8.66-8.09A36.33,36.33,0,0,1,93.5,136.2a66.53,66.53,0,0,1-2.14-13.62q-.45-7.47-.44-16.06a161.52,161.52,0,0,1,1.75-24.88,45.91,45.91,0,0,1,7.12-19,34.67,34.67,0,0,1,15.27-12.16q9.89-4.29,26.06-4.29a92.55,92.55,0,0,1,19.45,1.92,49.2,49.2,0,0,1,15.55,6,30.61,30.61,0,0,1,10.46,10.52,33.13,33.13,0,0,1,4.3,15.49,44.47,44.47,0,0,1-.57,10.85,18.22,18.22,0,0,1-3.62,7.92,22,22,0,0,1-7.53,5.77A60.11,60.11,0,0,1,166.87,108.78ZM145.6,59.59A68.56,68.56,0,0,0,130.53,61a30.81,30.81,0,0,0-10.31,4.12,20.91,20.91,0,0,0-6.45,6.67,31,31,0,0,0-3.57,9.11,71.47,71.47,0,0,0-1.59,11.42q-.39,6.27-.62,13.51l11.61-1.64q6.74-1,13.93-2.09t14.16-2.32q7-1.19,12.4-2.32,7.71-1.69,11.22-5.48t2.94-11.48a17.77,17.77,0,0,0-2.72-9A22.39,22.39,0,0,0,165.08,65a30,30,0,0,0-9-4A39.87,39.87,0,0,0,145.6,59.59Z"/><path class="cls-1" d="M298.86,54.16c.68-2,1.25-3.48,1.7-4.58A7.36,7.36,0,0,1,302,47.21a2.93,2.93,0,0,1,1.81-.85c.72-.07,1.72-.11,3-.11a14,14,0,0,1,3.62.56A9.29,9.29,0,0,1,314,48.74a7.08,7.08,0,0,1,2.21,3.56,9,9,0,0,1-.51,5.37l-33.92,91.14a24.45,24.45,0,0,1-3.39,6.84,14.11,14.11,0,0,1-4.36,3.9,16.69,16.69,0,0,1-5.31,1.87,36.22,36.22,0,0,1-6.28.51h-2.26a37.06,37.06,0,0,1-6.33-.51,16.7,16.7,0,0,1-5.37-1.87,13.89,13.89,0,0,1-4.36-3.9,24.45,24.45,0,0,1-3.39-6.84L206.82,57.67a8.54,8.54,0,0,1-.46-5.37,7.68,7.68,0,0,1,2.21-3.56,8.82,8.82,0,0,1,3.56-1.93,14.31,14.31,0,0,1,3.73-.56c1.21,0,2.19,0,2.94.11a3,3,0,0,1,1.87.85A6.87,6.87,0,0,1,222,49.58c.41,1.1,1,2.62,1.64,4.58l32.68,90.13a7.25,7.25,0,0,0,1.69,2.65,4.09,4.09,0,0,0,2.94,1h.45a4.31,4.31,0,0,0,3-1,6.85,6.85,0,0,0,1.75-2.65Z"/><path class="cls-1" d="M406.7,108.78q-5.65,1.47-13.13,2.88t-15.46,2.72q-8,1.31-15.91,2.43c-5.28.75-10.07,1.4-14.38,1.92a65.46,65.46,0,0,0,1.7,12.55,20.15,20.15,0,0,0,4.81,9.11,21.3,21.3,0,0,0,9.38,5.54A52.41,52.41,0,0,0,379,147.79a72.41,72.41,0,0,0,15.83-1.47A63.62,63.62,0,0,0,405.55,143a52,52,0,0,0,6.73-3.33,12,12,0,0,1,4-1.76,5.64,5.64,0,0,1,4.41,1.59,6,6,0,0,1,1.69,4.41,10,10,0,0,1-2.94,6.84A25.56,25.56,0,0,1,411,156.5a58.66,58.66,0,0,1-13.29,4,95.78,95.78,0,0,1-17.64,1.47,97.39,97.39,0,0,1-19.56-1.7,42.92,42.92,0,0,1-13.61-5,27.44,27.44,0,0,1-8.66-8.09,36.83,36.83,0,0,1-4.89-10.91,67.25,67.25,0,0,1-2.13-13.62q-.45-7.47-.45-16.06a161.52,161.52,0,0,1,1.75-24.88,45.78,45.78,0,0,1,7.13-19,34.64,34.64,0,0,1,15.26-12.16q9.9-4.29,26.07-4.29a92.62,92.62,0,0,1,19.45,1.92,49.24,49.24,0,0,1,15.54,6,30.61,30.61,0,0,1,10.46,10.52,32.89,32.89,0,0,1,4.3,15.49,43.5,43.5,0,0,1-.57,10.85,18.11,18.11,0,0,1-3.62,7.92A21.88,21.88,0,0,1,419,104.6,59.9,59.9,0,0,1,406.7,108.78ZM385.43,59.59A68.52,68.52,0,0,0,370.37,61a30.72,30.72,0,0,0-10.31,4.12,21,21,0,0,0-6.46,6.67A31,31,0,0,0,350,80.91a70.4,70.4,0,0,0-1.58,11.42q-.4,6.27-.63,13.51l11.61-1.64q6.75-1,13.94-2.09t14.16-2.32q7-1.19,12.4-2.32,7.69-1.69,11.21-5.48t2.95-11.48a17.87,17.87,0,0,0-2.72-9A22.3,22.3,0,0,0,404.91,65a29.94,29.94,0,0,0-9-4A39.89,39.89,0,0,0,385.43,59.59Z"/><path class="cls-1" d="M510.09,46.14A51.28,51.28,0,0,1,521,47.55a27.5,27.5,0,0,1,7.58,3.05A13.33,13.33,0,0,1,533,54.79a9.09,9.09,0,0,1,1.41,4.8,8.17,8.17,0,0,1-.23,1.87,6,6,0,0,1-.79,1.86,4,4,0,0,1-1.69,1.47,6.58,6.58,0,0,1-2.94.57,6.93,6.93,0,0,1-3.45-.79c-.95-.53-2.06-1.11-3.34-1.76a26.5,26.5,0,0,0-5-1.75,37.3,37.3,0,0,0-8.65-.79A87.38,87.38,0,0,0,491,61.63,42.07,42.07,0,0,0,481,64.79a11.66,11.66,0,0,0-4.75,3.74A6.45,6.45,0,0,0,475,71.47v85.59a3.83,3.83,0,0,1-.73,2.49,5.4,5.4,0,0,1-1.92,1.47,8.55,8.55,0,0,1-2.72.74,28.74,28.74,0,0,1-3.11.17,17.23,17.23,0,0,1-6-1,3.77,3.77,0,0,1-2.6-3.91V66.49a10.74,10.74,0,0,1,2.26-6.62,21.24,21.24,0,0,1,6.16-5.31,46,46,0,0,1,9.05-4,76.49,76.49,0,0,1,11-2.72,109.63,109.63,0,0,1,11.87-1.41Q504.32,46,510.09,46.14Z"/><path class="cls-1" d="M570.13,76.55a11,11,0,0,0,3.34,8.31,26.49,26.49,0,0,0,8.76,5.38A86.22,86.22,0,0,0,594.61,94l14.25,3.22q7.29,1.64,14.25,3.84a51.1,51.1,0,0,1,12.38,5.72,28.74,28.74,0,0,1,8.76,8.7,23.38,23.38,0,0,1,3.34,12.89,42,42,0,0,1-.68,7.24,27.45,27.45,0,0,1-7.74,14.7,31.4,31.4,0,0,1-8.58,6,52.31,52.31,0,0,1-12.7,4.13,88.06,88.06,0,0,1-17.51,1.53,116.48,116.48,0,0,1-17.22-1.3,87.87,87.87,0,0,1-15.65-3.73,40.16,40.16,0,0,1-11.4-5.83q-4.41-3.39-4.41-7.57a6.33,6.33,0,0,1,1.24-3.85,4.35,4.35,0,0,1,3.74-1.7,13.71,13.71,0,0,1,5.37,1.57q3.33,1.56,8.48,3.41A92.3,92.3,0,0,0,583,146.28a87.1,87.1,0,0,0,17.47,1.51,55.82,55.82,0,0,0,11.81-1.18,33.75,33.75,0,0,0,9.56-3.5,18.58,18.58,0,0,0,6.39-5.82,14.65,14.65,0,0,0,2.32-8.25,11,11,0,0,0-3.34-8.3,26.57,26.57,0,0,0-8.76-5.36A81.4,81.4,0,0,0,606,111.7q-6.94-1.52-14.24-3.21t-14.25-3.9a50.06,50.06,0,0,1-12.38-5.76A29,29,0,0,1,556.39,90a24.18,24.18,0,0,1-3.33-13.1,25.26,25.26,0,0,1,3.48-13.33A30.09,30.09,0,0,1,566,53.87a44.29,44.29,0,0,1,13.93-5.81,72.05,72.05,0,0,1,16.91-1.92c2,0,4.43.07,7.18.22a85.36,85.36,0,0,1,8.54.91c2.94.45,5.89,1,8.87,1.81A45.23,45.23,0,0,1,629.72,52a26.19,26.19,0,0,1,6.73,4.46,16.27,16.27,0,0,1,4.24,6.17,8.1,8.1,0,0,1,.29,2.48,4.71,4.71,0,0,1-.74,2.32,4.93,4.93,0,0,1-2,1.75,7.1,7.1,0,0,1-3.33.68A11,11,0,0,1,630,68.36a74.67,74.67,0,0,0-7.35-3.28A81.59,81.59,0,0,0,611.8,61.8a66.63,66.63,0,0,0-15.32-1.53A40.62,40.62,0,0,0,583.81,62a25.7,25.7,0,0,0-8.14,4.18,14.48,14.48,0,0,0-4.29,5.32A12.81,12.81,0,0,0,570.13,76.55Z"/><path class="cls-1" d="M676,5.88a3.82,3.82,0,0,1,.74-2.43,5.22,5.22,0,0,1,1.92-1.53,8.49,8.49,0,0,1,2.71-.73A26.65,26.65,0,0,1,684.45,1a17.11,17.11,0,0,1,6,1,3.77,3.77,0,0,1,2.55,3.9V23.63a3.83,3.83,0,0,1-.74,2.49,5.4,5.4,0,0,1-1.92,1.47,8.55,8.55,0,0,1-2.72.74,28.7,28.7,0,0,1-3.1.17,17,17,0,0,1-6-1,3.78,3.78,0,0,1-2.6-3.9ZM693.05,157a3.83,3.83,0,0,1-.74,2.49,5.52,5.52,0,0,1-1.92,1.47,8.3,8.3,0,0,1-2.72.73,26.35,26.35,0,0,1-3.1.17,17.28,17.28,0,0,1-6-1A3.78,3.78,0,0,1,676,157V51.11a3.82,3.82,0,0,1,.74-2.43,5.08,5.08,0,0,1,2-1.53,9.17,9.17,0,0,1,2.72-.73,27.37,27.37,0,0,1,3.05-.17,17.11,17.11,0,0,1,6,1,3.77,3.77,0,0,1,2.55,3.9Z"/><path class="cls-1" d="M737.6,55.9a53.73,53.73,0,0,1,10.06-4.38,98.91,98.91,0,0,1,11.48-3A118.34,118.34,0,0,1,771,46.81q5.94-.56,11.14-.56,12.55,0,20.24,4.18a30.18,30.18,0,0,1,11.93,11.48A47,47,0,0,1,820,79a146.76,146.76,0,0,1,1.42,21.09v1.13a174,174,0,0,1-1.59,24.49,57.28,57.28,0,0,1-5.93,19.22,31.59,31.59,0,0,1-12,12.55q-7.64,4.47-19.73,4.47-6.33,0-13.34-.23T755,160.8a126.84,126.84,0,0,1-13.11-2,54.25,54.25,0,0,1-11-3.39,23.1,23.1,0,0,1-7.52-5.09,10.08,10.08,0,0,1-2.83-7.18V9.27a8.94,8.94,0,0,1,1.25-5,8.47,8.47,0,0,1,3-2.83A10.18,10.18,0,0,1,728.61.23,35.64,35.64,0,0,1,732.4,0a15.81,15.81,0,0,1,2.48.17,2.53,2.53,0,0,1,1.59.85,4.75,4.75,0,0,1,.84,2,18.19,18.19,0,0,1,.29,3.61Zm41.27,4.48a106.17,106.17,0,0,0-14.64,1.48A95,95,0,0,0,751.11,65a45.59,45.59,0,0,0-9.56,4.13q-3.72,2.27-3.95,4.53v64.76c0,1.67,1,3.08,3,4.25a27.26,27.26,0,0,0,8.14,2.83,92.53,92.53,0,0,0,12,1.59q6.84.51,14.53.51,3.29,0,6.73-.29a23.51,23.51,0,0,0,6.67-1.52,20.41,20.41,0,0,0,6.11-3.8,20.89,20.89,0,0,0,5-7.13,48.69,48.69,0,0,0,3.34-11.49,97.11,97.11,0,0,0,1.24-16.87l-.11-12.68q-.12-10.87-2-17.5A25.49,25.49,0,0,0,796.91,66a15.38,15.38,0,0,0-8-4.69A40.78,40.78,0,0,0,778.87,60.38Z"/><path class="cls-1" d="M866.62,157a3.83,3.83,0,0,1-.74,2.49,5.52,5.52,0,0,1-1.92,1.47,8.31,8.31,0,0,1-2.71.73,26.65,26.65,0,0,1-3.11.17,17.28,17.28,0,0,1-6-1,3.78,3.78,0,0,1-2.6-3.9V5.77c0-2,.38-3.26,1.13-3.9s2.26-1,4.53-1a20.55,20.55,0,0,1,3.84.4,12.4,12.4,0,0,1,3.73,1.36,8.24,8.24,0,0,1,2.77,2.54,7.1,7.1,0,0,1,1.08,4.07Z"/><path class="cls-1" d="M970.16,108.78q-5.65,1.47-13.14,2.88t-15.45,2.72q-8,1.31-15.91,2.43c-5.28.75-10.08,1.4-14.38,1.92a64.68,64.68,0,0,0,1.7,12.55,20.13,20.13,0,0,0,4.8,9.11,21.4,21.4,0,0,0,9.39,5.54,52.31,52.31,0,0,0,15.32,1.86,72.47,72.47,0,0,0,15.83-1.47A63.62,63.62,0,0,0,969,143a52.4,52.4,0,0,0,6.72-3.33,12,12,0,0,1,4-1.76,5.64,5.64,0,0,1,4.41,1.59,6,6,0,0,1,1.7,4.41,10,10,0,0,1-2.94,6.84,25.51,25.51,0,0,1-8.43,5.71,58.4,58.4,0,0,1-13.28,4,95.78,95.78,0,0,1-17.64,1.47,97.42,97.42,0,0,1-19.57-1.7,42.86,42.86,0,0,1-13.6-5,27.58,27.58,0,0,1-8.67-8.09,36.57,36.57,0,0,1-4.88-10.91,66.53,66.53,0,0,1-2.14-13.62q-.45-7.47-.45-16.06A161.45,161.45,0,0,1,896,81.64a45.91,45.91,0,0,1,7.12-19,34.67,34.67,0,0,1,15.27-12.16q9.89-4.29,26.06-4.29a92.62,92.62,0,0,1,19.45,1.92,49.3,49.3,0,0,1,15.55,6,30.69,30.69,0,0,1,10.46,10.52,33.13,33.13,0,0,1,4.3,15.49,44.47,44.47,0,0,1-.57,10.85A18.22,18.22,0,0,1,990,98.83a22.07,22.07,0,0,1-7.53,5.77A60.11,60.11,0,0,1,970.16,108.78ZM948.88,59.59A68.52,68.52,0,0,0,933.82,61a30.81,30.81,0,0,0-10.31,4.12,20.91,20.91,0,0,0-6.45,6.67,31,31,0,0,0-3.57,9.11,70.35,70.35,0,0,0-1.59,11.42q-.39,6.27-.62,13.51l11.61-1.64q6.74-1,13.93-2.09T951,99.79q7-1.19,12.4-2.32,7.71-1.69,11.22-5.48t2.94-11.48a17.87,17.87,0,0,0-2.72-9A22.39,22.39,0,0,0,968.37,65a30.11,30.11,0,0,0-9-4A39.89,39.89,0,0,0,948.88,59.59Z"/></g></g></svg>
